<svg width="82" height="52" viewBox="0 0 82 52" fill="none" xmlns="http://www.w3.org/2000/svg">
<path d="M0.943619 2.16144V0.102539C9.44473 0.102539 17.8928 0.102539 26.3439 0.102539C26.8091 1.69427 26.6943 1.89848 25.0571 2.36565C22.6631 3.05102 21.2909 5.66102 22.139 7.9605C25.593 17.3515 29.0883 26.7284 32.4657 36.1445C32.825 37.1432 32.7985 38.4496 32.451 39.4567C31.2143 43.0458 29.7744 46.5733 28.3727 50.1093C28.143 50.6883 28.09 51.4856 27.0565 51.4688C26.3674 51.4576 25.9699 51.2898 25.7078 50.6268C21.8445 40.847 17.9606 31.0756 14.0678 21.3042C11.9565 16.0031 9.83636 10.7048 7.70152 5.41205C6.75924 3.079 5.33993 2.17543 2.71922 2.16424C2.16269 2.16144 1.60616 2.16424 0.943619 2.16424V2.16144Z" fill="url(#paint0_linear_1088_659)"/>
<path d="M46.6323 0.0524492C47.4479 -0.134978 47.6864 0.279041 47.9456 0.958815C50.7842 8.47549 53.6699 15.9782 56.5556 23.4781C58.1516 27.6295 59.8477 31.7501 61.3377 35.935C61.6852 36.9085 61.6763 38.1869 61.3259 39.1604C59.9596 42.9733 58.3842 46.7135 56.9119 50.4928C56.6822 51.083 56.4496 51.4747 55.6722 51.4719C54.9155 51.4719 54.624 51.1194 54.3854 50.5264C51.7176 43.8629 49.0292 37.2078 46.3496 30.5472C44.3384 25.5538 42.3096 20.566 40.3514 15.553C40.1276 14.9823 40.1335 14.2046 40.3455 13.6283C41.9268 9.35668 43.6023 5.11858 45.213 0.85531C45.478 0.153157 45.8873 -0.118194 46.6352 0.0468544L46.6323 0.0524492Z" fill="url(#paint1_linear_1088_659)"/>
<path d="M81.632 0.11084V2.14177C79.2027 1.86203 77.7687 3.49293 76.0991 4.74617C74.4707 5.96865 72.3948 6.00221 70.628 4.88884C69.7829 4.35453 69.0409 3.65518 68.1516 3.21598C67.2122 2.75161 66.1728 2.3264 65.1392 2.20891C63.3106 1.9963 63.293 2.09421 63.6345 0.113637H81.632V0.11084Z" fill="url(#paint2_linear_1088_659)"/>
<defs>
<linearGradient id="paint0_linear_1088_659" x1="16.8336" y1="0.102539" x2="16.8336" y2="51.4691" gradientUnits="userSpaceOnUse">
<stop stop-color="#F9AA4D"/>
<stop offset="1" stop-color="#F2737B"/>
</linearGradient>
<linearGradient id="paint1_linear_1088_659" x1="50.8893" y1="0" x2="50.8893" y2="51.4719" gradientUnits="userSpaceOnUse">
<stop stop-color="#F9AA4D"/>
<stop offset="1" stop-color="#F2737B"/>
</linearGradient>
<linearGradient id="paint2_linear_1088_659" x1="72.5477" y1="0.11084" x2="72.5477" y2="5.69469" gradientUnits="userSpaceOnUse">
<stop stop-color="#F9AA4D"/>
<stop offset="1" stop-color="#F2737B"/>
</linearGradient>
</defs>
</svg>
